<?xml version="1.0" encoding="UTF-8" standalone="no"?>
<svg
   width="6.7733421cm"
   height="6.7733421cm"
   viewBox="0 0 800.00001 800.00001"
   version="1.1"
   id="svg1"
   sodipodi:docname="fd2.svg"
   inkscape:version="1.4.3 (fcd0343856, 2026-01-01)"
   inkscape:export-filename="fd2.png"
   inkscape:export-xdpi="223.22401"
   inkscape:export-ydpi="223.22401"
   xmlns:inkscape="http://www.inkscape.org/namespaces/inkscape"
   xmlns:sodipodi="http://sodipodi.sourceforge.net/DTD/sodipodi-0.dtd"
   xmlns="http://www.w3.org/2000/svg"
   xmlns:svg="http://www.w3.org/2000/svg">
  <defs
     id="defs1" />
  <sodipodi:namedview
     id="namedview1"
     pagecolor="#ffffff"
     bordercolor="#000000"
     borderopacity="0.25"
     inkscape:showpageshadow="2"
     inkscape:pageopacity="0.0"
     inkscape:pagecheckerboard="0"
     inkscape:deskcolor="#d1d1d1"
     inkscape:document-units="in"
     inkscape:zoom="1"
     inkscape:cx="127.5"
     inkscape:cy="212.5"
     inkscape:window-width="1920"
     inkscape:window-height="1027"
     inkscape:window-x="0"
     inkscape:window-y="0"
     inkscape:window-maximized="1"
     inkscape:current-layer="layer1"
     showgrid="true">
    <inkscape:grid
       id="grid5"
       units="in"
       originx="0"
       originy="0"
       spacingx="299.99961"
       spacingy="299.99961"
       empcolor="#0099e5"
       empopacity="0.30196078"
       color="#0099e5"
       opacity="0.14901961"
       empspacing="5"
       enabled="true"
       visible="true" />
  </sodipodi:namedview>
  <g
     inkscape:groupmode="layer"
     id="layer1"
     inkscape:label="Dahcs">
    <path
       id="Selection"
       fill="none"
       stroke="#000000"
       stroke-width="1"
       d="m 379,66 c 24.45261,-6.285713 46.32734,5.03949 70.18575,4 19.23403,2.451732 37.92847,8.139303 56.6105,13.27375 15.08629,7.775243 31.44505,11.658191 46.07394,20.66758 19.26744,8.78261 37.96898,18.90607 53.12981,33.74867 20.47895,11.37172 34.44858,31.69906 51.77,47.31 8.53266,15.24593 21.81329,27.13099 29.21,43 8.71762,16.60483 17.48679,33.38338 24.02,50.5 9.92569,21.65525 14.27757,44.60638 20,67.39822 -2.22488,15.80814 3.37949,29.87912 5,44.89822 1.6501,15.75653 -1.9034,30.32861 -5,45.10178 2.79115,22.71479 -8.63996,42.21612 -10.59,64.10178 -8.99784,13.5001 -10.37726,29.4111 -19.11616,42.86749 -9.93313,14.0811 -15.73697,23.04409 -23.78384,42.30251 -7.56477,12.9856 -17.05794,25.02222 -26.93072,36.47613 -15.70974,15.05218 -29.75417,32.59046 -48.40455,43.52007 -9.02224,8.71032 -19.87371,14.96203 -30.66803,21.03088 -16.57078,7.44969 -32.17579,18.06453 -49.34545,23.65417 -15.40712,6.67066 -31.1324,12.8403 -47.84306,15.10098 C 460.0333,729.08296 446.3592,731.16871 432,730 400.75804,742.72797 348.07076,726.98393 331.06541,725.19268 309.82644,724.35196 291.64105,712.8154 271.63531,707.49164 251.36419,695.84095 228.80615,687.79356 210.17625,673.895 198.74907,664.22588 185.44567,657.21233 175.18251,646.03219 161.02654,631.53185 145.04446,618.27021 134.78168,600.85824 119.44758,584.60988 111.08875,563.52318 100.48384,544.13251 81.117113,516.27261 62.591664,421.86227 65,402.50891 c -2.801031,-16.00363 6.049251,-29.36139 5,-45 -0.153013,-22.18683 8.077453,-42.99646 14.06,-63.59891 5.947386,-16.4354 12.632746,-32.48394 21.45616,-47.77749 5.57528,-12.68124 12.07997,-24.71388 20.30384,-35.76876 8.93205,-10.94085 15.88881,-23.35301 26.0573,-33.40721 15.44924,-14.98948 29.34086,-32.20699 47.83083,-43.0887 9.14229,-8.55366 19.86182,-15.02283 30.68335,-20.9472 C 244.82185,105.1446 259.92689,98.816234 274.17,90.59 295.05265,84.325076 314.83979,76.287511 336.27125,72.4925 349.22916,65.550861 366.67183,75.297843 379,66 Z m 175.5531,491.53096 c -2.99862,9.67509 -5.90027,28.23676 -7.8481,45.06529 -6.28272,18.59886 -21.00947,31.58587 -34.995,44.70375 -18.70577,7.1374 -32.64745,21.46984 -50.15,30.32625 -15.04002,4.0779 -30.15787,0.10077 -44.25778,-3.67598 -17.54625,-3.03301 -35.08156,-10.17622 -46.58854,-24.89873 -10.81613,-10.05356 -15.42096,-24.64338 -25.541,-35.18167 -10.7904,-16.11788 -30.7838,-13.02322 -45.47276,-22.19199 -27.50635,-9.02725 -55.35454,-9.0329 -80.60992,-24.63788 -16.15406,-8.92428 -35.10136,-7.48513 -52.7625,-11.18 -20.04757,-11.19466 -40.04164,19.79664 -21.12697,33.89646 13.30361,11.83401 20.30752,28.16598 34.29363,39.39311 11.92231,9.55342 23.76341,19.25478 35.79584,28.82668 19.91009,11.61485 38.73411,26.99885 61.12333,33.05079 C 300.46969,703.95353 326.93367,708.59025 353,714 c 16.01091,-2.25548 30.33035,3.67162 45.69466,4.79 14.34384,2.81457 25.37711,-7.21546 39.69465,-4.79 23.45427,-0.67018 45.51506,-7.82881 67.44694,-15.03 12.50215,-5.30101 25.38808,-10.256 38.03375,-15.29625 12.04694,-9.65175 26.97574,-14.82325 38.84604,-24.75519 12.91425,-5.95857 20.00006,-20.31376 33.62126,-25.41573 10.81213,-10.35377 21.29958,-20.91077 28.9191,-33.60832 C 658.08901,587.37537 667.67423,572.33601 675,556 c 13.90427,-13.0703 14.17326,-32.53984 23.66163,-47.97278 6.25987,-17.37625 9.03072,-35.51809 14.54868,-52.85488 0.92657,-16.1172 0.0864,-32.28292 5.62969,-46.957 2.64638,-15.17537 -5.28226,-27.95129 -4.68,-42.60465 0.0665,-22.52391 -5.90182,-44.01899 -12.87125,-64.74194 -4.18498,-15.0541 -11.8419,-29.03206 -16.91332,-43.75127 -7.50765,-10.46828 -12.91855,-22.5102 -20.07994,-33.27249 C 657.78983,213.53741 650.59896,203.9156 641.22,195.57 c -5.41104,-13.44081 -18.42144,-21.55949 -27.65,-32.34 -14.65787,-5.12446 -21.73585,-21.02535 -36.17699,-26.39541 -11.89124,-8.57224 -25.29347,-14.95239 -37.52454,-23.1378 -16.29674,-4.84778 -31.5141,-12.9818 -47.80371,-17.602473 C 473.90881,91.706414 455.90638,85.761259 436.71247,86 c -16.22312,0.07515 -31.03404,-7.239978 -47.69466,-4.84 -13.1838,6.622631 -28.61459,4.230829 -43.3525,5.307187 -18.48557,5.171411 -37.46647,9.115277 -56.19651,15.068603 -13.95484,10.08711 -32.93208,8.9966 -44.6388,22.76421 -14.916,6.76437 -28.78765,15.1153 -40.74413,26.15991 -9.72693,10.37645 -23.23416,15.31596 -31.96634,27.02753 -8.36637,12.67584 -42.10226,38.99711 -23.52666,43.51256 19.62788,0.93173 38.67149,-3.20066 56.44713,-9.42 16.20213,-8.38682 35.14892,-3.06033 52.08625,-8.0275 19.27075,-7.1937 41.23872,-4.44679 60.27066,-12.56662 C 333.65709,182.62425 350.29009,174.214 369,176.16 c 46.21072,3.57927 69.85594,7.43189 101.83,16 20.96701,10.77113 38.05044,17.75826 53.46,32.28 22.27603,14.81872 44.99486,20.72403 69.7125,19.43875 30.82229,-3.59999 50.58593,36.14373 40.5875,61.12125 -5.75164,17.29005 -19.44455,32.69226 -20.59,52 -1.01577,19.26276 3.18869,39.79807 -5.015,57.4175 -6.35377,25.36605 -1.3727,48.17821 -6.505,71.52875 -2.14989,15.23344 -14.61756,24.76273 -24.78406,35.60801 -7.92221,11.86211 -16.51777,23.30574 -23.14284,35.9767 z M 332,528 c 20.36116,-0.39601 11.65138,28.06189 28.98,33.15 5.91335,17.81579 9.71679,36.12752 16.9368,53.28964 11.7628,19.89458 26.6022,26.80546 42.91289,33.4563 22.15569,5.57458 24.80102,-2.19329 17.52758,-15.78188 C 431.66888,619.61849 415.7392,602.28633 417.69,584 c 1.6308,-18.00766 22.80562,-28.00429 39.31,-25.84 19.57002,1.46116 40.40043,13.84886 43.195,34.9075 2.39003,25.96095 -36.56024,22.27919 -43.185,42.9325 -10.33571,30.45939 33.59018,9.57731 45.70736,0.10418 16.08876,-12.58407 32.90474,-29.62905 20.71264,-47.14418 -1.0189,-16.58509 -14.3572,-29.48628 -20.41125,-43.6075 -4.91405,-14.70942 -0.39844,-32.40582 3.295,-47.5625 4.58716,-23.75187 -1.21612,-49.20398 3.43,-73.0325 8.61183,-14.80138 10.6669,-31.90038 8.54656,-49.17984 -10.3583,-26.14193 -12.18661,-54.99957 -16.78961,-83.24392 -4.38916,-10.62728 -6.92716,-21.984 -13.4287,-32.00974 -8.93554,-13.87658 -16.18995,-22.17125 -28.83309,-33.2646 -11.96623,-8.68797 -17.53049,-24.3193 -29.58761,-30.96231 -13.65114,-5.60992 -31.26796,-6.8747 -45.44774,-10.09709 -17.5816,0.0152 -46.96455,-0.20867 -51.41793,7.77562 -1.37499,9.57187 42.64493,8.89706 47.95447,33.59801 14.5605,12.6842 24.08947,30.31918 28.31146,48.81512 8.29479,13.48256 -0.4148,33.60063 7.63844,44.85125 7.93582,16.23742 29.71126,43.38179 19.36953,58.62797 -11.3216,12.91741 -15.70214,26.04292 -14.05953,44.02669 -0.7353,13.47234 -1.66188,27.03293 -5.64125,38.58784 -6.44399,13.67197 17.97249,94.67704 0.31797,77.10922 -1.95262,-1.85818 -13.6141,-26.17062 -28.3053,-4.3034 -10.59009,17.02698 18.30429,57.05391 -13.99236,46.00715 C 361.62651,563.05181 374.94784,479.19907 349,477.73 c -22.91072,-2.50065 -37.70586,-24.21222 -46.95625,-42.85 -4.80463,-22.14121 -25.73433,-38.3308 -43.6917,-49.80208 -18.67681,-15.07162 -52.06311,3.09697 -61.5633,-13.19167 -12.32367,-13.776 -53.87977,-42.66598 -70.90857,-50.21156 C 116.92057,314.87356 100.94869,289.10821 95,313.91 c -6.7629,29.16347 -13.382993,60.6923 -13.327031,90.79453 2.421019,15.60969 0.885088,27.94921 5.568125,41.17516 17.743736,-10.74227 37.821966,4.34573 9.166031,2.12031 0.659272,8.43716 23.500355,21.48134 30.990375,9.0825 22.6414,-2.34932 42.74583,7.72814 62.3125,17.4275 10.6361,10.36871 30.13777,25.60892 5.7,9.44 C 175.94057,477.73847 168.05406,467.97836 139,463 c -27.00847,-1.8219 -11.62675,5.02663 7.01,9.66 22.00286,7.00858 34.541,12.00244 49.3223,22.00309 12.65195,7.33973 23.36806,17.36234 35.51162,25.20014 12.18783,14.98632 30.91939,21.04478 47.78358,28.12927 18.25348,5.07221 34.5152,16.10417 47.71535,27.09924 33.2917,9.4227 -19.28068,-37.15564 -31.64894,-42.72518 C 270.70154,510.61169 325.01325,551.75269 336.01,558 346.51451,550.87004 323.40902,531.03205 332,528 Z M 178.80974,291.04426 C 166.06415,278.2567 158.83141,271.86948 161.57,261.97 c 6.96582,-13.22809 22.62023,-19.07981 67.32822,-25.93 14.55486,-1.03849 33.43735,-6.22157 30.75053,8.58625 -7.55947,14.75218 -33.37509,34.5266 -16.67875,46.90375 7.21217,7.93669 24.36558,-26.396 28.625,-43.81 13.93117,-34.86586 -95.31833,-30.89543 -120.22734,-2.81297 -10.26786,17.96999 2.92783,37.29722 15.92234,50.37297 7.78618,6.48052 27.8986,27.96396 31.45203,10.75156 -2.71868,-4.23047 -9.2878,-7.26926 -19.93229,-14.9873 z M 598,257 c -35.81123,-13.98628 -42.80304,25.64941 -11.99929,49.21554 13.57901,13.45132 11.25597,33.06388 22.98179,15.72071 22.40525,-9.99454 25.27792,-47.78714 0.59625,-52.5325 19.95018,10.98697 -2.24397,47.70981 -13.35386,36.15435 C 585.44399,291.21551 549.30945,268.33543 598,257 Z m -406,20 c 5.03551,13.39789 11.05518,26.8646 22.44,36.29 13.83259,26.92381 20.76935,2.50093 5.865,-10.83734 C 207.49001,296.82032 186.12797,249.27313 192,277 Z m 138,4.6 c -20.38559,12.38141 -42.53572,31.9857 -47.05,54.27125 7.94389,12.60084 14.20377,28.92322 30.70531,31.25141 21.59626,-3.2672 44.31277,-4.43325 53.95031,-27.02594 17.61023,-22.47519 -13.30633,-43.01568 -24.51765,-58.75406 C 338.75427,280.59373 334.309,280.8351 330,281.6 Z m 240.91761,62.18761 C 565.27389,346.92769 551.26348,308.4841 553,338 c 6.50914,34.05844 37.92988,12.82142 25.32881,-17.98815 -7.56528,-15.91401 -21.388,-19.10597 -8.74646,-1.12212 5.56503,8.02981 2.86313,15.62195 1.33526,24.89788 z M 259.33,372.6 c 1.96967,11.26687 22.52391,18.19858 30.06747,30.54527 29.2868,19.46681 -5.97911,-31.76815 -22.74309,-31.38324 z M 350,392.59 c -26.83269,10.7956 -31.02941,49.22466 -5.34217,61.347 20.27529,12.79975 63.14242,-0.20491 61.10639,-26.43341 C 390.40254,408.87894 378.63888,387.89149 350,392.59 Z M 343,403 c 11.41264,-12.49861 54.26406,5.67794 18.30484,4.67625 -7.72563,5.55216 19.34859,6.33458 19.59766,17.94625 -5.42234,-28.15862 37.21605,10.04008 8.22187,17.81391 -18.87719,17.1657 1.75095,-23.43884 -17.30062,-3.12891 -4.47313,8.71293 14.90604,11.24848 -7.8175,11.74406 -19.58769,5.94649 -38.5812,-22.93496 -26.17,-37.84906 3.4788,-2.63111 5.15874,-6.96951 5.16375,-11.2025 z m 203.09,-0.41 c -15.89925,5.44669 -21.32432,25.46079 -21.04125,39.51125 4.75092,19.17439 31.70473,30.10403 44.50125,12.17875 17.68775,-13.02947 21.61343,-45.58242 -3.64,-51.69 -6.50484,-1.28626 -13.28587,-0.81659 -19.82,0 z m 5.91,5.14 c 35.23412,-1.38464 30.07949,48.83561 -0.95234,49.53484 C 525.12889,453.738 529.59783,413.28909 552,407.73 Z M 378,408 c 7.40596,-0.50757 2.93792,7.86324 0,0 z m 182,39 c 28.35303,-7.1726 -8.84432,-52.27784 -3.31375,-25.40125 C 570.10012,425.5241 560.35764,440.11186 560,447 Z M 371,422 c -9.56199,4.73312 4.99903,8.42143 0,0 z m 187,6 c -9.11396,-2.66883 0.34893,10.23587 0,0 z m 40,0 c -6.35177,-9.22505 -3.52029,42.56838 -26.17,53.3 -14.40599,6.28949 -13.47284,27.03451 -25.79394,36.67801 C 524.42143,532.51917 530.57452,593.00996 535,578 c 5.15017,-10.13119 3.83045,-31.08879 17.15756,-46.99776 C 567.86277,508.54388 561.9102,513.53116 584.98,490.17 597.38865,469.78509 602.46387,450.61609 598,428 Z m -497,8 c 19.02354,-13.52853 39.69057,5.25811 9,2 l -4.6425,-0.34375 z m 32.32304,-6.97787 c 34.89302,8.04771 22.67655,-8.52754 0,0 z M 171,456 c -15.48901,5.33392 -35.50866,-14.86993 -6.89875,-7.505 l 3.73484,2.78031 z m -66,13 c -24.451907,-8.90053 -10.67604,23.04104 0,0 z m 11.865,18.59375 c 2.22858,-27.0212 -31.037115,6.70078 0,0 z m 41.94474,-1.25304 c -10.64009,-12.95291 -38.89865,9.79529 -5.33917,6.51344 5.26576,1.92864 -21.3404,-4.59162 5.33917,-6.51344 z m -47.12832,12.31858 c -12.73572,-12.89956 -32.801149,6.5283 0,0 z M 223,503 c 13.72199,6.57027 26.08485,19.39124 40.71013,25.6408 12.92977,7.28953 64.44141,30.39325 44.55143,27.76451 -18.866,-11.14674 -37.31615,-17.14423 -56.91049,-29.12555 C 243.17734,522.88311 220.07097,505.70777 223,503 Z m 110,4 c 5.62924,-10.78501 15.09491,6.26095 0,0 z m 20,2 c 11.41792,3.79321 -2.41122,16.58333 0,0 z m -25,8 c 11.43338,-9.20376 19.20626,13.38525 0,0 z m 30,1 c 10.00985,7.77861 -3.6383,16.13141 0,0 z m -43.59,11.03 c 25.97528,1.16378 13.63048,30.96644 0,0 z M 353,537 c -3.37962,-14.21701 10.29933,-4.68562 0,0 z m 114,41 c -11.0393,-13.79474 -35.10871,3.25831 -6.93084,-0.28879 2.31028,0.0963 4.62056,0.19253 6.93084,0.28879 z m 11,30 c 28.02695,-2.3175 6.06165,-40.97197 -15,-20 -17.41006,-13.82378 -25.79341,46.35163 -5.23,16.04125 -1.02116,-28.98986 11.90413,-1.84996 13.57281,9.09031 9.67466,0.7295 -3.14228,-33.68291 16.32719,-21.07156 1.40519,7.41683 -8.60377,9.23459 -9.67,15.94 z M 338,588 c 44.6554,42.54008 33.24236,57.50885 53,67.58 12.90383,8.36315 81.97189,25.72864 53.67,9.01 -16.03568,-3.38639 -33.54387,-6.80594 -47.99884,-15.76726 C 382.16533,635.93332 371.94642,612.07178 360.98,600 360.20843,594.98248 322.31012,567.90059 338,588 Z m 94,11 c -15.29136,5.79149 25.87403,14.04331 3.30078,3.41578 z"
       style="display:inline;fill:#000000;fill-opacity:1"
       inkscape:label="Dachs"
       sodipodi:nodetypes="cccccccccccccccccccccccccccccccccccccccccccccccccccccccccccccccccccccccccccccccccccccccccccccccccsccccccccccccccccccccccccccccccccccccccccccccccccccccccccccccccccccccccccccccccccccccccccccccccccccccccccccccccccccccccccccccccccccccccccccccccccccccccccccccccccccccccccccc" />
    <path
       style="display:inline;fill:#ff2323;fill-opacity:1;stroke-width:3.125"
       d="m 400.24227,651.19966 c -3.59513,5.25442 21.73636,47.16342 -20.29899,88.09255 -42.03532,40.92917 34.29202,56.96896 54.20349,34.84508 19.91148,-22.12384 22.63436,-100.90455 16.29439,-105.432 -6.89003,-4.92026 -10.41837,-5.51624 -26.64971,-8.80267 -8.90444,-1.80292 -16.65303,-5.41492 -23.54918,-8.70296 z"
       id="path2"
       sodipodi:nodetypes="cssssc"
       inkscape:label="Tung" />
  </g>
</svg>
