<?xml version="1.0" encoding="UTF-8" standalone="no"?>
<svg
   width="1000"
   height="850"
   viewBox="0 0 3124.9901 2656.2499"
   version="1.1"
   xmlns="http://www.w3.org/2000/svg"
   xmlns:svg="http://www.w3.org/2000/svg">
  <path
     fill="red"
     stroke="#000000"
     stroke-width="0"
     d="m 1599.7676,216.1581 54.0113,10.80227 -3.4613,99.34693 -72.1546,41.08253 z m -594.1246,32.4068 64.8135,-21.60453 10.8023,108.02266 z M 994.84063,518.62155 826.54137,458.34491 791.434,271.68175 832.80669,237.76263 Z m 1458.30597,-216.04532 44.6061,47.65747 -66.2107,60.3652 v 43.20906 l -75.6158,-54.01133 V 378.1921 Z M 433.12282,388.99437 659.9704,313.3785 l 75.61587,194.44079 -64.81359,15.87933 z m 756.15858,-32.4068 183.6385,-43.20907 10.8023,172.83626 c -39.5363,-6.04927 -149.7194,-29.92228 -174.4566,-59.52049 -16.6355,-19.87617 -17.7157,-45.69358 -19.9842,-70.1067 z m 432.0907,291.66118 7.9937,-162.03399 154.0403,-145.72258 c 0,0 61.4648,-5.50915 86.4181,-5.50915 -2.5925,32.51482 -26.2495,149.39534 -26.2495,149.39534 z m 280.8589,-291.66118 43.209,-10.80228 -17.2824,19.85829 z m -475.9734,90.25929 76.2896,60.97243 h -54.0114 z m 627.5292,50.17016 v -53.79528 l 30.4609,-45.26306 17.4443,37.5672 -8.4285,44.49801 z m 269.7326,-64.81359 h 21.6045 l 17.3605,66.17094 -49.7673,74.25852 -39.479,-47.32967 z m -356.4748,54.01133 -21.494,24.64199 21.494,18.56708 z m -1706.75804,10.80226 75.61587,10.80227 -42.39619,37.04724 z m 259.25439,0 59.16727,21.31723 48.85539,43.49637 -62.85003,-17.45915 z m 324.06798,0 40.61652,7.99368 21.24219,38.15598 -30.87637,12.22067 -21.80039,-26.71968 z M 2580.7213,669.85328 v -82.20524 l 142.0498,-72.48321 41.5888,65.89382 -84.3658,51.85088 z m -754.1062,-129.62719 -12.3145,108.02266 -214.533,291.66118 9.1818,-216.04531 z m 216.0453,205.24306 -20.9563,-97.32842 46.1627,-73.62792 91.8238,-14.1364 -0.6899,87.76432 z m -928.9948,-183.63853 73.1759,106.6971 13.2422,87.74369 z m 32.4068,0 111.4722,37.69619 50.5617,232.36046 -73.1773,-159.79886 z m 388.8816,0 8.6413,86.85267 -67.2344,87.02798 -94.7991,42.16468 V 682.59996 Z M 627.56361,648.24875 766.04869,592.29301 888.74168,763.69325 Z M 2035.5973,871.39608 2145.538,751.66142 2463.9945,651.3986 l 24.7738,-112.12286 50.7964,141.37981 -308.7615,89.61754 204.5973,-14.00168 -356.5348,164.77278 136.9892,-110.48389 z M 994.84063,777.87595 961.35364,669.85328 989.00745,617.67833 1013.2045,744.2809 Z m 907.39037,-86.41813 12.8119,-51.68064 41.1995,-23.93523 -14.377,47.69221 z M 570.48938,661.0265 566.05114,611.96517 708.63407,794.05786 757.19084,864.29408 605.70402,744.61345 Z m 1958.27302,127.65171 34.8718,-65.67216 42.3057,-34.84162 84.8565,-29.11342 -70.7661,79.91482 z M 384.92058,666.79511 c 25.13532,22.42645 153.5491,115.19027 153.5491,115.19027 L 385.43383,709.3655 Z m 1474.10132,46.26724 97.2205,64.8136 -194.4409,162.03398 z m -777.7631,10.80227 h 21.6045 l 104.5488,222.36465 -149.3749,-64.29498 88.1413,19.50677 z m 1644.3915,894.00138 208.2653,22.3141 c 29.2741,0.432 59.3045,0.2164 83.9336,18.796 80.3688,60.6007 -6.9135,192.8205 -53.3632,216.1533 -33.9191,21.2805 -91.9273,6.6974 -127.7908,0 l -280.8589,-79.7207 c -27.1138,-6.6974 -104.0259,-15.1231 -118.933,-33.595 -23.5489,-29.2742 2.9167,-167.0031 7.8856,-208.0517 17.2837,-146.0466 7.7777,-297.9265 -15.5552,-442.8929 -8.3177,-48.5022 -49.778,-155.81678 0,-184.39471 l 94.1958,-38.13203 226.8476,-86.4181 c 37.3758,-14.90712 101.9733,-45.69358 140.4295,-44.39731 87.7143,2.80859 148.8551,98.51664 137.9448,180.50585 -14.1509,106.4024 -124.9821,81.3411 -191.9562,87.4984 l -108.0227,21.9285 c -28.9501,4.429 -79.6126,9.182 -97.0043,35.6476 -8.6367,13.4276 -14.2196,39.0105 -11.7304,61.7689 8.2084,34.1333 36.9658,38.4625 76.9655,30.9913 41.2808,-7.9817 84.2723,-15.7243 118.1873,-6.3421 76.156,21.0644 113.964,150.5836 61.4649,209.78 -59.6284,67.1901 -164.6265,12.7467 -200.274,27.0057 -43.8572,17.4997 -32.1907,87.3903 -35.8635,125.8464 l -6.8932,58.1359 c -7.5118,28.9175 57.9009,23.9056 92.1255,27.5726 z m -298.4559,-790.83505 -87.3145,55.11802 18.2937,-52.42952 z M 290.22517,1442.8559 c 8.24545,74.7446 25.91269,175.5775 41.74862,240.5333 6.91345,28.194 32.19075,102.6215 23.54894,126.7106 -11.77447,32.9469 -129.95127,80.8009 -161.16981,64.7055 -22.9008,-11.7744 -37.91595,-49.6903 -46.77382,-72.5912 C 89.030821,1649.254 69.3707,1384.1664 71.315101,1218.8917 72.179305,1148.785 97.888677,884.45357 128.56712,831.19837 c 38.99618,-67.83819 175.82809,-28.77578 199.48506,32.58107 10.87972,36.18954 15.1322,62.38123 5.73425,101.91757 l -52.58921,228.05779 c -13.74758,52.7583 179.38329,39.8025 200.38796,10.5539 14.9562,-50.8635 15.093,-104.5776 21.06442,-158.2532 6.04926,-66.10992 5.94125,-158.90137 97.97655,-146.0467 36.72771,5.18514 82.9614,17.93177 89.44276,60.16866 l -23.00883,161.49394 c -13.3948,110.6152 -12.63864,192.1722 -12.4226,302.4634 0.10804,61.4649 7.66961,122.9298 17.1756,183.6385 4.42893,27.8699 17.06758,80.2609 6.80543,105.7543 -18.03978,45.0454 -112.34356,61.5728 -145.72256,28.1939 -24.84523,-24.9533 -38.88817,-140.1055 -40.18444,-177.1572 l -8.66125,-128.6323 c 0.97891,-39.0414 -6.39054,-33.1717 -42.02036,-31.1922 l -126.916,7.0509 c -31.33825,-2.0276 -27.24858,7.0708 -24.88873,31.0652 z M 1513.3494,756.27141 h 21.6046 l -18.796,186.44712 -132.4358,40.40045 z m -676.6019,34.87054 146.14171,67.15811 -91.7703,-4.98568 -107.52758,-57.69996 z m 1131.5632,53.81909 -20.4512,54.73318 -67.2331,7.8089 z m 296.0804,110.03137 c 45.5703,-14.53304 106.7264,58.00809 118.6089,145.07439 21.4965,156.5249 28.3019,296.3062 12.6387,453.6952 -4.753,46.7738 -2.9167,176.617 -57.3601,190.876 -72.0989,-4.3356 -116.686,-6.9974 -111.5098,-79.3387 l 14.9375,-208.7577 v -201.3139 c -3.005,-61.4677 -16.0516,-139.9562 -29.5982,-209.1722 -4.753,-52.8231 4.3209,-70.75487 52.283,-91.06309 z M 892.5664,1619.9776 c -0.17227,25.5871 -2.20002,54.1381 -12.91769,70.6491 -19.87616,27.9779 -109.21097,51.6349 -132.11174,0 -17.28363,-37.0517 2.05243,-137.6208 8.74984,-180.0737 19.9842,-126.9267 33.91914,-255.0416 73.2394,-378.0794 9.61402,-29.8143 40.07634,-115.1522 59.52044,-135.78448 37.80793,-40.18446 139.13315,-15.7713 165.05855,29.16618 14.6911,25.6014 10.9103,76.696 11.0183,106.6183 0.5402,105.2141 23.3329,242.1868 45.4776,345.6726 6.8054,31.6506 36.9437,128.1149 34.3512,150.5835 -4.1049,35.3235 -37.8079,46.4497 -68.9185,49.2583 -70.7548,6.4814 -56.7119,-55.1995 -92.03523,-85.2298 -20.21775,-20.7696 -91.90439,-23.5277 -91.43217,27.2194 z m 419.4971,-314.6754 c 16.8089,-58.6474 43.7192,-150.6508 61.5728,-182.9827 18.3638,-33.379 51.8508,-52.391 87.7143,-29.5982 43.4252,27.6537 -0.3237,100.8932 -13.3947,136.9728 -61.4649,168.8393 -60.7088,301.3832 -77.3443,356.2587 -11.4504,37.8079 -46.2337,68.7024 -88.2545,56.7119 -43.7492,-12.5307 -54.9835,-83.0695 -64.5976,-121.3095 -25.1692,-100.137 -63.6253,-277.8342 -66.1098,-378.0793 -0.7558,-34.1352 -7.5616,-97.9766 33.9191,-110.5072 84.4737,-25.4933 86.4181,80.6929 92.5754,132.1117 7.9005,67.1536 -0.996,81.0261 14.171,138.1537 9.2057,36.7295 10.8377,33.3992 19.7483,2.2681 z m 596.2115,119.6048 c 1.5473,66.6978 4.009,178.7974 -23.1513,209.1158 -15.1232,16.8516 -42.5609,18.4719 -63.6254,15.3393 -26.5735,-3.8888 -44.5053,-13.8269 -48.9343,-42.2369 l 20.9452,-219.3977 c 5.6323,-63.2602 -5.661,-127.2975 -11.0071,-190.4402 -3.6728,-23.7651 -15.2312,-74.4277 -7.7776,-95.7081 10.3702,-29.7063 41.2646,-36.0796 68.1623,-43.3171 52.0669,-14.043 142.806,-40.5085 194.4408,-31.3266 98.4087,17.3916 164.5185,155.9848 130.8154,245.9676 -17.3916,46.3418 -54.5514,64.2734 -57.5761,108.0227 -6.2653,87.2823 138.5931,332.3857 -30.0302,322.9877 l -38.7768,-5.8164 c -23.2604,-2.0777 -27.3059,-17.1618 -29.935,-30.6563 -6.4035,-81.2561 -16.6382,-155.7725 -38.5892,-234.2286 -7.6968,-18.6247 -11.5197,-22.1338 -27.6492,-30.3412 l -14.1861,-4.1724 c -20.5325,-3.9456 -23.5588,3.9975 -23.1254,26.2084 z m -456.6597,128.8895 61.0462,-313.3002 c 8.5337,-36.7277 20.6323,-102.0815 61.5728,-114.18 76.6961,-22.5767 91.3872,48.2862 105.2141,103.3778 28.9568,115.0672 39.0237,199.5118 42.1197,303.0603 2.6914,45.5711 0.3523,91.1746 -34.8493,84.8042 l -33.4628,-3.9153 c -22.4128,-3.1134 -25.1074,-13.2903 -29.6412,-28.7292 -5.4283,-24.7498 -11.7142,-39.9354 -33.0153,-47.435 -21.1276,-6.3752 -38.2946,-3.1983 -42.3996,17.2195 -7.969,39.4783 -27.605,42.8991 -68.1496,42.6455 -25.4959,-3.7962 -29.2897,-8.643 -28.435,-43.5476 z m 479.1768,-273.3588 41.7217,-5.5902 c 12.7468,-3.0247 28.8422,-6.8054 39.8605,-14.475 89.2267,-62.4371 -72.4832,-155.1206 -105.9702,-81.5571 -8.8872,16.7516 -2.9272,60.2517 -2.3456,77.7822 1.3306,23.0204 5.6401,23.7479 26.7336,23.8401 z m -1004.35945,57.8139 c -6.66691,22.1913 -9.69686,45.7944 -11.13985,69.3486 -0.116,32.831 -12.4324,48.9414 23.45105,48.9414 36.25966,3.6575 28.53135,-6.373 25.36575,-38.4983 l -8.48189,-86.0779 c -10.71437,-35.1384 -18.44641,-20.6913 -29.19506,6.2862 z m 673.65375,16.633 -21.5755,71.9184 c 0,0 -5.0101,18.2622 14.8023,18.9364 23.8175,1.4694 23.2706,-7.4556 23.1018,-18.0896 -0.6743,-24.943 -6.6627,-91.2907 -16.3286,-72.7652 z m -356.9101,369.789 324.1845,0.017 248.4521,134.3802 147.5589,136.9727 -223.1748,100.5691 -165.0585,-237.0978 z m -518.39229,306.2652 84.07811,-163.2538 241.33048,-109.4014 -98.56101,139.8954 -106.62598,75.9217 z m 1173.21939,-271.5325 259.8092,152.7076 -17.9317,64.8136 z m -741.1288,77.0918 108.0227,32.4067 -34.1351,67.8383 -30.6785,83.3935 -6.2653,-107.0505 z m 1199.0516,0 98.737,11.7111 20.0879,31.4979 -61.1371,-11.1471 z m -162.0341,10.8022 248.2362,127.0346 49.9064,88.4706 -200.9221,74.2116 -129.6273,-116.8805 37.6666,-83.9231 z m -1531.69244,27.146 -218.27458,102.4812 -89.22671,-12.0985 78.42445,-57.2521 94.18022,-24.0178 58.15119,-16.7906 z m 346.12224,11.1641 -93.23236,127.1566 -114.50925,63.2906 z m 1714.8813,26.5035 -12.6386,37.0518 -53.0451,12.0469 -21.4772,-44.4202 44.1679,-11.5919 z m -1901.19884,270.0566 313.26574,-259.2543 -118.8249,334.8702 z m -345.67248,-75.6158 52.79689,-102.3675 120.03937,-48.8642 -72.1001,90.3236 z m 853.37902,-151.2317 49.8179,39.7784 -17.4111,57.442 z m 148.3096,15.9278 195.3825,142.9592 -121.068,-48.2711 z m 272.9788,167.7107 205.2431,-97.2204 10.8022,10.8023 -172.8363,106.8343 c -0.4415,0.5965 -43.209,-20.4162 -43.209,-20.4162 z m -464.4974,54.0114 -53.3633,-6.1573 -35.2465,-32.8838 28.2976,-61.2844 50.8882,-16.4881 c 0.4658,-0.6398 18.3898,31.0435 18.3898,31.0435 v 31.7587 z m 1371.8878,-97.2205 h 86.4181 l -29.559,51.2148 z m -615.7293,10.8023 172.8363,67.4061 183.6385,170.2438 -162.0339,108.0226 z m -1415.09679,108.0226 35.37915,-79.2826 51.03898,14.469 z m 756.15859,0 50.7071,-5.3856 68.1179,-91.8348 10.8022,248.4522 -76.064,-50.4217 z m 205.2431,-32.4068 75.6158,108.0227 -75.6158,10.8023 z m 399.6839,118.825 -54.0114,8.8579 -67.3203,-51.1648 40.5228,-25.9853 56.0716,27.5677 z m -1242.26066,-54.0114 5.05898,30.5592 -78.2263,36.4037 z m 1004.61076,43.2091 43.209,64.8136 -51.1638,-23.7331 z m -712.9495,151.2318 66.9019,-115.8518 41.1207,-13.7754 -56.928,142.3738 z m 540.1132,64.8136 14.4972,-105.0543 71.9209,-35.3752 v 140.4295 z"
   />
</svg>
